<?xml version="1.0" ?><svg id="Layer_1" style="enable-background:new 0 0 512 512;" version="1.1" viewBox="0 0 512 512" xml:space="preserve" xmlns="http://www.w3.org/2000/svg" xmlns:xlink="http://www.w3.org/1999/xlink"><g><polygon points="366.5,15.8 366.5,103.9 460.8,103.9  "/><path d="M257.3,361.9l28.5,46.2l-28.5,46.2h231.5v-92.4H257.3z M328.7,428.1H322V411h-17.9v17.1h-6.7v-40h6.7v17.6H322v-17.6h6.7   V428.1z M365.9,393.5h-12.4v34.6h-6.7v-34.6h-12.2v-5.4h31.2V393.5z M413.2,428.1h-6.7v-28.7l-0.2,0l-11,28.8h-4.6l-11.2-29.3   l-0.2,0.1v29.3h-6.7v-40h8.8l11.5,30.8h0.2l11.6-30.8h8.5V428.1z M448.7,428.1h-25.4v-40h6.7v34.7h18.7V428.1z"/><polygon points="123.4,167.5 123.4,114.6 78,114.6 78,105.1 23.2,105.1 23.2,177 78,177 78,167.5  "/><polygon points="123.4,397.4 123.4,344.5 78,344.5 78,335 23.2,335 23.2,406.9 78,406.9 78,397.4  "/><polygon points="274.7,408.1 240.3,352.4 466.6,352.4 466.6,114.7 355.7,114.7 355.7,6 78,6 78,105.1 132.9,105.1 132.9,177    78,177 78,335 132.9,335 132.9,406.9 78,406.9 78,506 466.6,506 466.6,463.8 240.3,463.8  "/></g></svg>